# xmcd
#
# Track frame offsets:
#	150
#	20700
#	33181
#	47535
#	60719
#	76824
#	89938
#	107073
#	126184
#	139524
#	153957
#	170089
#	186968
#	199201
#	215144
#	234298
#	252027
#	269414
#	281813
#	295367
#
# Disc length: 4133
#
# Revision: 1
# Processed by: cddbd v1.5.1PL0 Copyright (c) Steve Scherf et al.
# Submitted via: audiograbber 1.83.01
# Normalized: r0:DSETVAR2
#
DISCID=2d102314
DTITLE=Various Artist - Mobile Beat Country Vol 002
DYEAR=1900
DGENRE=
TTITLE0=John Michael Montgomery - Lifes A Dance
TTITLE1=Clay Walker - Only On Days That End In Y
TTITLE2=Mary-Chapin Carpenter - I Feel Lucky
TTITLE3=Sammy Kershaw - Cadillac Style
TTITLE4=Tracy Byrd - Big Love
TTITLE5=Johnny Paycheck - Slide Off Your Satin Sheets
TTITLE6=Tractors - Baby Likes To Rock It
TTITLE7=Brooks and Dunn - Neon Moon
TTITLE8=Blackhawk - Big Guitar
TTITLE9=Sawyer Brown - Some Girls Do
TTITLE10=George Strait - Adalida
TTITLE11=Kentucky Headhunters - Walk Softly On This Heart Of Mine
TTITLE12=Ty England - Should've Asked Her Faster
TTITLE13=Alabama - TLC ASAP
TTITLE14=Hal Ketchum - Hang In There Superman
TTITLE15=Rodney Crowell - What Kind Of Love
TTITLE16=David Kersh - Another You
TTITLE17=Exile - Super Love
TTITLE18=Brother Phelps - Anyway The Wind Blows
TTITLE19=Confederate Railroad - Trashy Women
EXTD=
EXTT0=
EXTT1=
EXTT2=
EXTT3=
EXTT4=
EXTT5=
EXTT6=
EXTT7=
EXTT8=
EXTT9=
EXTT10=
EXTT11=
EXTT12=
EXTT13=
EXTT14=
EXTT15=
EXTT16=
EXTT17=
EXTT18=
EXTT19=
PLAYORDER=
